<?xml version="1.0" standalone="no"?>
<!DOCTYPE svg PUBLIC "-//W3C//DTD SVG 20010904//EN"
 "http://www.w3.org/TR/2001/REC-SVG-20010904/DTD/svg10.dtd">
<svg version="1.0" xmlns="http://www.w3.org/2000/svg"
 width="1045.000000pt" height="1045.000000pt" viewBox="0 0 1045.000000 1045.000000"
 preserveAspectRatio="xMidYMid meet">
<metadata>
Created by potrace 1.14, written by Peter Selinger 2001-2017
</metadata>
<g transform="translate(0.000000,1045.000000) scale(0.100000,-0.100000)"
fill="#000000" stroke="none">
<path d="M0 5225 l0 -5225 5225 0 5225 0 0 5225 0 5225 -5225 0 -5225 0 0
-5225z m2551 4029 c20 -24 -1 -48 -47 -52 -21 -2 -43 -8 -49 -13 -5 -6 -12
-78 -15 -162 -5 -138 -7 -152 -24 -155 -35 -7 -41 15 -46 171 l-5 152 -30 3
c-75 7 -99 27 -69 57 23 22 266 22 285 -1z m599 1 c56 -29 75 -104 44 -171
-13 -28 -14 -40 -5 -60 6 -14 11 -37 11 -52 0 -16 5 -33 11 -39 18 -18 7 -58
-18 -61 -27 -4 -63 48 -63 90 0 37 -34 58 -92 58 -45 0 -47 -1 -52 -32 -3 -18
-7 -51 -8 -73 -2 -30 -8 -41 -22 -44 -39 -7 -46 23 -46 200 0 139 3 170 16
183 21 22 183 22 224 1z m1086 -4 c64 -39 79 -126 33 -185 -28 -36 -54 -48
-119 -55 l-55 -6 -5 -55 c-6 -61 -14 -80 -35 -80 -28 0 -35 40 -35 204 0 200
-2 196 108 196 58 0 85 -5 108 -19z m2195 -19 c25 -28 29 -40 29 -91 0 -52 -4
-63 -29 -89 -30 -30 -67 -42 -127 -42 -32 0 -33 -2 -39 -47 -3 -27 -7 -54 -8
-62 -1 -8 -10 -19 -20 -25 -15 -9 -21 -7 -33 8 -11 16 -14 57 -14 185 0 91 4
171 8 177 13 19 35 23 120 21 81 -2 85 -3 113 -35z m625 24 c27 -21 7 -50 -37
-54 -92 -6 -117 -13 -122 -32 -12 -45 1 -57 66 -63 41 -4 65 -11 73 -22 22
-30 5 -42 -69 -51 -77 -10 -86 -18 -73 -69 5 -20 13 -23 76 -27 74 -4 108 -22
97 -52 -5 -13 -26 -16 -122 -16 -115 0 -116 0 -125 26 -6 14 -10 94 -10 177 0
200 -2 197 129 197 69 0 103 -4 117 -14z m616 4 c42 -12 61 -36 48 -61 -8 -13
-22 -15 -84 -11 -75 5 -75 5 -110 -30 -44 -44 -53 -80 -35 -132 17 -48 67 -86
115 -86 52 0 64 9 64 45 0 32 -2 34 -37 37 -31 2 -39 7 -41 27 -5 32 12 41 80
41 47 0 59 -4 68 -19 11 -22 13 -140 2 -157 -29 -45 -163 -59 -231 -24 -50 25
-77 60 -96 122 -46 154 97 292 257 248z m-4028 -22 c3 -13 6 -93 6 -179 0
-164 -7 -195 -46 -187 -18 3 -19 14 -22 183 -1 99 0 185 2 192 9 23 53 15 60
-9z m1684 -138 c67 -160 81 -222 50 -228 -18 -4 -30 8 -58 56 -19 31 -21 32
-89 32 l-70 0 -23 -42 c-28 -50 -61 -59 -66 -17 -3 24 76 237 120 322 16 31
24 38 45 35 22 -3 32 -20 91 -158z m-3423 -60 c0 -25 -1 -25 -103 -28 -85 -2
-103 0 -108 13 -3 8 -3 22 0 30 5 13 23 15 108 13 102 -3 103 -3 103 -28z
m6405 15 c7 -8 10 -22 6 -30 -4 -12 -26 -15 -111 -15 -103 0 -105 0 -105 23 0
13 3 27 7 30 3 4 48 7 98 7 70 0 96 -4 105 -15z m-3033 -1463 c50 -35 74 -76
80 -137 10 -92 -25 -157 -107 -202 l-35 -20 0 -249 0 -249 135 -6 c146 -6 218
-22 311 -70 99 -50 221 -179 268 -284 49 -109 46 -42 59 -1285 0 -8 -2 -97 -4
-197 l-5 -182 33 -5 c18 -3 76 -10 128 -16 130 -15 293 -48 343 -70 45 -19 87
-54 87 -72 0 -6 -31 -56 -68 -112 -38 -56 -72 -107 -76 -113 -6 -10 76 -13
395 -13 l401 0 -6 28 c-14 59 -18 220 -7 277 6 33 31 101 55 150 145 294 494
415 793 275 153 -72 277 -221 324 -390 78 -283 -74 -590 -347 -703 -83 -34
-139 -47 -213 -50 l-64 -3 -24 -69 c-72 -216 -210 -421 -356 -530 -111 -84
-301 -154 -419 -155 -29 0 -41 -6 -58 -30 -12 -17 -38 -39 -59 -49 l-37 -19
-12 -164 c-20 -280 -23 -416 -13 -618 16 -311 44 -490 97 -632 36 -97 45 -104
139 -116 151 -20 330 -95 390 -162 15 -16 20 -36 20 -77 0 -53 -2 -57 -47 -98
-120 -109 -347 -164 -673 -164 -171 0 -287 10 -395 33 -94 20 -181 46 -197 58
-18 14 -30 3 -37 -35 -14 -76 -165 -168 -316 -192 -25 -4 -52 -11 -62 -16 -17
-9 -276 -32 -368 -32 -85 -1 -340 22 -359 32 -9 5 -36 12 -61 16 -105 17 -212
66 -277 128 -58 54 -54 137 9 193 67 61 275 133 423 146 25 3 34 11 52 48 31
64 60 160 83 275 40 205 66 746 36 778 -6 7 -16 22 -22 32 -11 20 -27 20 -760
20 l-749 0 -3 -105 c-4 -153 -34 -207 -135 -240 -76 -24 -165 14 -204 90 -20
37 -23 56 -23 170 l0 128 -42 22 c-157 81 -265 213 -312 380 -13 48 -16 259
-22 1645 -7 1485 -6 1595 10 1668 26 115 77 208 160 292 127 128 241 174 461
184 l130 6 3 251 2 251 -39 18 c-71 32 -111 96 -111 177 1 79 60 165 125 181
11 3 362 4 780 3 l760 -1 32 -23z m4062 -598 c67 -53 73 -55 103 -45 43 15 46
15 62 -17 11 -20 12 -33 4 -47 -16 -28 42 -75 93 -75 30 0 39 -5 45 -22 5 -13
7 -27 6 -32 -3 -10 27 -45 50 -57 12 -7 46 5 125 42 172 82 246 102 271 77 21
-21 13 -43 -35 -89 -57 -54 -112 -92 -211 -147 -23 -12 -46 -30 -51 -40 -13
-24 -2 -70 19 -85 29 -20 33 -51 9 -81 -18 -23 -20 -34 -13 -69 7 -30 15 -43
29 -45 50 -10 63 -64 21 -84 -33 -15 -34 -20 -23 -120 11 -97 4 -120 -48 -148
-24 -13 -28 -13 -39 3 -7 9 -21 47 -30 84 -22 86 -28 97 -55 101 -25 4 -26 13
-6 51 12 25 12 34 -3 81 -11 36 -23 55 -39 61 -24 9 -31 33 -13 44 22 13 4 95
-21 95 -5 0 -27 -11 -48 -25 -40 -27 -273 -134 -335 -155 -41 -13 -42 -16 -51
-135 -6 -80 -22 -115 -52 -115 -16 0 -21 11 -48 105 -15 53 -26 72 -43 80 -18
8 -22 16 -18 36 4 19 -1 32 -16 45 -11 11 -38 43 -60 72 -32 43 -37 56 -28 68
19 22 37 17 134 -30 l89 -44 116 78 c64 43 151 97 195 121 43 24 81 50 83 57
9 21 -37 62 -70 62 -27 0 -29 2 -24 29 5 25 -1 36 -39 75 -35 36 -51 46 -72
44 -25 -3 -27 0 -24 30 2 28 -6 43 -44 85 -82 91 -87 108 -40 127 46 19 72 10
145 -46z m-7767 -3391 c42 -16 111 -63 136 -93 7 -8 24 -37 39 -65 46 -88 42
-213 -11 -340 -7 -16 -23 -55 -35 -85 -23 -55 -212 -442 -230 -470 -15 -23
-30 0 -135 215 -155 316 -191 407 -203 515 -9 90 36 195 112 263 27 24 94 60
125 68 51 13 160 9 202 -8z m71 -1198 c176 -27 267 -72 267 -134 0 -81 -190
-141 -450 -141 -201 0 -380 40 -437 96 -121 121 265 232 620 179z"/>
<path d="M3008 9193 c-14 -3 -18 -15 -18 -53 l0 -49 45 -7 c50 -7 89 10 100
45 16 51 -51 84 -127 64z"/>
<path d="M4094 9176 c-3 -8 -4 -29 -2 -47 2 -28 8 -35 36 -43 58 -16 113 38
85 83 -14 22 -111 28 -119 7z"/>
<path d="M6270 9141 c0 -47 2 -50 30 -56 36 -8 83 13 88 38 2 10 1 29 -2 43
-6 22 -12 24 -61 24 l-55 0 0 -49z"/>
<path d="M5217 9093 c-2 -10 -8 -26 -12 -35 -6 -15 -2 -18 24 -18 34 0 37 6
19 45 -13 29 -24 32 -31 8z"/>
<path d="M3703 7515 c-50 -35 -50 -127 -2 -171 20 -18 52 -19 769 -19 l748 0
26 24 c22 21 26 33 26 81 0 46 -4 61 -23 78 l-23 22 -750 0 c-651 0 -752 -2
-771 -15z"/>
<path d="M3816 7224 c-3 -9 -6 -116 -6 -239 0 -123 3 -230 6 -239 5 -12 20
-16 60 -16 47 0 54 3 59 23 8 33 0 461 -9 475 -11 19 -103 16 -110 -4z"/>
<path d="M4020 6989 c0 -138 4 -249 9 -247 4 2 32 32 61 67 84 101 90 103 399
99 l258 -3 40 -28 c22 -15 57 -52 78 -82 64 -93 66 -88 63 193 l-3 247 -452 3
-453 2 0 -251z"/>
<path d="M5015 7228 c-3 -7 -4 -121 -3 -253 l3 -240 55 0 55 0 0 250 0 250
-53 3 c-36 2 -54 -1 -57 -10z"/>
<path d="M4215 6814 c-33 -16 -64 -52 -65 -71 0 -10 70 -13 319 -13 176 0 322
4 325 9 9 14 -35 62 -70 77 -51 21 -468 20 -509 -2z"/>
<path d="M3453 6634 c-156 -34 -290 -138 -358 -278 -57 -118 -54 -32 -55
-1749 -1 -1169 2 -1596 11 -1637 17 -83 66 -167 143 -247 93 -96 181 -139 316
-152 131 -14 1671 -13 1688 1 8 7 12 49 12 145 0 132 0 134 -26 158 -15 14
-31 25 -35 25 -5 0 -20 18 -34 40 l-25 40 -39 -26 c-56 -36 -124 -41 -175 -12
-80 47 -81 48 -84 331 l-3 252 -72 107 c-39 59 -75 104 -79 100 -4 -4 -9 -168
-10 -364 l-3 -357 -34 -35 c-62 -64 -150 -72 -219 -19 -63 48 -62 33 -62 682
l0 590 -80 120 c-44 66 -85 123 -90 126 -6 4 -10 -55 -11 -162 0 -92 -2 -418
-5 -723 -6 -620 -4 -601 -76 -644 -71 -42 -171 -21 -222 47 l-21 28 -3 1613
-2 1613 22 33 c39 56 69 72 137 72 67 0 111 -19 145 -65 21 -28 21 -32 24
-858 1 -456 5 -829 8 -829 2 0 21 8 42 19 20 10 53 22 72 26 19 4 41 12 48 17
9 8 12 181 12 801 0 763 1 791 19 821 30 47 75 69 143 69 74 -1 116 -25 146
-83 l22 -45 0 -755 -1 -755 73 0 73 0 5 772 c5 760 5 772 26 799 39 53 68 67
133 67 68 -1 111 -21 145 -66 21 -28 21 -34 24 -744 2 -673 3 -715 20 -708 23
10 134 48 150 51 9 3 12 148 13 681 0 627 2 680 18 708 29 50 76 75 141 75 72
0 116 -27 148 -90 l22 -45 0 -574 c0 -315 2 -576 5 -579 2 -3 22 2 42 11 51
22 153 47 192 47 l31 0 0 529 c0 309 -4 551 -10 582 -26 142 -140 292 -270
356 -133 65 -102 63 -1153 62 -759 -1 -964 -4 -1014 -15z m91 -303 c16 -9 38
-29 50 -44 l21 -28 0 -1613 0 -1613 -28 -40 c-36 -52 -89 -76 -151 -69 -54 5
-111 43 -128 84 -17 40 -25 3212 -8 3251 36 89 153 123 244 72z"/>
<path d="M3413 6265 c-17 -7 -33 -22 -36 -32 -3 -10 -7 -733 -9 -1606 l-3
-1589 30 -24 c37 -29 78 -31 116 -3 l29 20 0 1589 c0 1166 -3 1596 -11 1614
-7 14 -25 30 -42 36 -37 12 -35 12 -74 -5z"/>
<path d="M3919 6265 c-15 -8 -29 -21 -32 -29 -3 -8 -9 -727 -13 -1599 l-7
-1585 31 -31 c39 -40 87 -42 126 -6 l26 24 0 1590 0 1590 -22 25 c-28 32 -74
41 -109 21z"/>
<path d="M4435 6271 c-12 -5 -26 -15 -32 -22 -7 -10 -12 -251 -14 -789 l-4
-775 64 2 c36 1 75 4 88 8 l23 5 0 760 0 759 -22 25 c-25 28 -72 40 -103 27z"/>
<path d="M4914 6266 c-17 -8 -34 -20 -37 -29 -4 -11 -12 -1401 -8 -1495 1 -22
4 -23 84 -20 l82 3 3 747 2 747 -22 25 c-29 32 -64 39 -104 22z"/>
<path d="M5401 6246 l-23 -24 -5 -649 c-4 -357 -3 -661 0 -674 5 -21 54 -58
61 -47 22 33 79 108 95 122 21 19 21 24 21 623 0 638 -1 650 -45 667 -37 14
-82 6 -104 -18z"/>
<path d="M5800 5044 c-171 -53 -168 -50 -173 -191 -2 -61 -1 -116 2 -121 3 -5
65 -12 138 -14 113 -5 132 -3 135 10 2 8 2 84 0 168 l-3 154 -42 -1 c-23 0
-49 -3 -57 -5z"/>
<path d="M7666 5019 c-137 -32 -285 -155 -349 -289 -48 -102 -64 -204 -47
-307 16 -104 22 -113 70 -113 45 0 45 0 25 66 -21 69 -19 189 4 256 27 79 44
108 96 166 179 199 485 202 664 7 89 -98 128 -215 118 -354 -15 -195 -188
-378 -377 -398 -73 -7 -77 -10 -85 -56 l-7 -37 49 0 c115 0 251 59 344 150 67
66 102 120 137 209 21 56 25 81 25 171 -1 170 -56 296 -174 403 -65 60 -140
101 -220 122 -60 16 -212 18 -273 4z"/>
<path d="M5516 4858 c-21 -29 -20 -51 2 -71 25 -23 32 -13 32 45 0 52 -10 60
-34 26z"/>
<path d="M7673 4860 c-108 -38 -197 -126 -239 -235 -26 -69 -25 -192 3 -260
20 -49 21 -50 67 -53 45 -3 51 0 136 68 50 40 90 75 90 80 0 4 -56 9 -125 12
-150 5 -159 10 -159 92 0 62 32 114 84 136 35 15 28 20 167 -115 48 -45 73
-77 73 -92 0 -12 5 -25 10 -28 13 -8 13 -70 1 -113 -9 -30 -7 -33 21 -48 30
-15 30 -17 24 -72 -4 -31 -10 -72 -13 -89 -4 -26 -2 -33 11 -33 30 0 146 32
146 41 0 4 -19 9 -42 11 -47 3 -46 2 -88 148 -12 41 -26 87 -32 103 -9 22 -7
31 6 46 9 9 16 27 16 38 0 22 190 213 212 213 14 0 53 -24 77 -47 7 -8 19 -34
27 -59 11 -36 11 -52 1 -82 -15 -45 -30 -49 -174 -51 -57 0 -103 -5 -103 -9 0
-4 48 -39 106 -76 102 -67 106 -70 101 -100 -3 -17 -8 -39 -12 -48 -15 -37 16
-16 50 35 39 57 75 160 75 214 0 46 -26 147 -52 196 -44 88 -171 180 -267 194
l-36 5 43 -28 c51 -35 52 -46 11 -150 -17 -44 -38 -98 -47 -121 -34 -85 -65
-60 -121 97 -23 63 -41 120 -41 127 0 6 17 25 37 42 42 35 31 38 -44 11z"/>
<path d="M5198 4784 c-74 -38 -79 -51 -76 -195 l3 -124 69 -3 c95 -4 106 7
106 109 0 48 -6 94 -16 118 -14 36 -14 41 1 65 37 57 -7 72 -87 30z"/>
<path d="M7763 4798 c-8 -9 -4 -30 12 -72 24 -63 28 -63 53 4 24 62 21 75 -19
78 -21 2 -40 -2 -46 -10z"/>
<path d="M5370 4758 c0 -30 1 -31 15 -12 19 25 19 44 0 44 -10 0 -15 -10 -15
-32z"/>
<path d="M5451 4724 c-18 -41 -14 -54 18 -54 18 0 34 -8 44 -22 28 -40 21 7
-8 51 -32 52 -40 55 -54 25z"/>
<path d="M4879 4653 c-13 -3 -17 -20 -18 -88 -1 -46 2 -86 6 -88 5 -3 40 -7
78 -8 69 -2 70 -2 67 22 -2 13 -4 57 -4 97 l-1 72 -56 -1 c-31 -1 -63 -3 -72
-6z"/>
<path d="M5632 4644 c3 -17 15 -19 131 -22 109 -2 127 0 127 13 0 12 -12 15
-53 15 -30 0 -89 3 -132 7 -72 6 -77 5 -73 -13z"/>
<path d="M4683 4643 c-24 -2 -43 -7 -43 -11 -6 -92 -6 -133 0 -142 4 -7 39
-15 79 -18 l71 -5 0 92 0 91 -32 -2 c-18 -1 -52 -3 -75 -5z"/>
<path d="M6005 4632 c-5 -4 -11 -14 -13 -22 -8 -38 -33 -60 -67 -60 -22 0 -42
-8 -56 -22 -15 -16 -23 -19 -26 -10 -3 6 -10 12 -17 12 -8 0 -25 9 -38 20 -30
23 -94 35 -142 26 -32 -6 -35 -11 -45 -54 -5 -26 -6 -50 -2 -55 11 -11 491 10
651 29 156 17 248 40 232 56 -20 20 -148 48 -306 68 -88 11 -160 20 -160 20
-1 0 -5 -4 -11 -8z"/>
<path d="M4450 4618 c-63 -12 -70 -19 -70 -71 0 -45 12 -51 113 -62 l67 -7 0
76 0 76 -27 -1 c-16 -1 -53 -6 -83 -11z"/>
<path d="M7527 4612 c-10 -10 -17 -31 -17 -45 0 -27 1 -27 67 -27 l67 0 -44
45 c-24 25 -47 45 -51 45 -3 0 -13 -8 -22 -18z"/>
<path d="M8002 4591 c-23 -21 -42 -41 -42 -45 0 -3 27 -6 60 -6 69 0 84 15 59
58 -21 38 -32 37 -77 -7z"/>
<path d="M5374 4598 c-9 -15 10 -30 29 -22 9 3 17 10 17 14 0 12 -39 19 -46 8z"/>
<path d="M4228 4574 c-27 -8 -48 -19 -48 -24 0 -9 90 -40 117 -40 9 0 13 14
13 40 0 46 -6 48 -82 24z"/>
<path d="M5450 4512 c-29 -15 -52 -32 -51 -38 0 -5 26 -10 56 -12 55 -3 56 -3
70 32 8 20 15 38 15 41 0 13 -42 3 -90 -23z"/>
<path d="M4250 4440 c0 -16 40 -51 50 -45 19 11 10 43 -12 49 -32 8 -38 7 -38
-4z"/>
<path d="M6305 4439 c-38 -5 -104 -13 -145 -19 -41 -6 -194 -13 -340 -17
l-266 -6 -54 -49 -55 -50 150 6 c339 15 711 57 780 88 13 6 32 22 40 35 15 22
15 23 -12 22 -16 -1 -59 -5 -98 -10z"/>
<path d="M4384 4416 c-11 -29 4 -44 58 -55 105 -21 113 -20 116 16 4 36 -1 39
-100 49 -57 5 -69 4 -74 -10z"/>
<path d="M4639 4398 c0 -7 -2 -20 -4 -29 -5 -29 9 -37 80 -40 l70 -4 3 34 c2
20 -2 37 -10 42 -22 14 -138 11 -139 -3z"/>
<path d="M4865 4390 c-9 -15 3 -63 18 -72 7 -4 45 -8 85 -8 l73 0 -3 43 -3 42
-82 3 c-51 2 -84 -1 -88 -8z"/>
<path d="M5170 4390 c0 -14 43 -30 54 -20 4 5 5 13 2 19 -9 14 -56 14 -56 1z"/>
<path d="M5316 4378 c-22 -31 -20 -38 12 -38 33 0 112 35 112 50 0 6 -23 10
-54 10 -45 0 -58 -4 -70 -22z"/>
<path d="M7900 4338 c0 -28 35 -118 45 -118 18 0 65 39 65 54 0 11 -89 76
-104 76 -3 0 -6 -5 -6 -12z"/>
<path d="M7679 4324 c-12 -14 -11 -16 5 -13 11 2 21 10 24 17 5 17 -13 15 -29
-4z"/>
<path d="M5120 4322 c0 -5 7 -13 16 -16 10 -4 14 -1 12 6 -5 15 -28 23 -28 10z"/>
<path d="M4384 4285 c-8 -20 35 -105 90 -180 25 -33 52 -70 61 -83 9 -12 34
-30 55 -38 26 -11 42 -25 48 -44 15 -41 145 -176 152 -156 4 13 9 12 38 -5 25
-17 32 -28 32 -54 0 -32 49 -107 94 -144 9 -8 32 -37 51 -65 19 -28 52 -62 74
-76 22 -14 41 -28 41 -32 0 -14 72 -88 80 -83 4 2 7 18 8 36 1 38 0 38 40 32
31 -5 32 -7 32 -54 l0 -49 65 0 c82 0 120 16 170 71 22 24 185 202 362 394
199 217 345 384 382 440 34 49 61 93 61 97 0 12 -40 10 -137 -7 -142 -24 -462
-45 -686 -45 -198 0 -209 -1 -214 -19 -4 -16 -11 -18 -41 -14 -21 3 -41 12
-45 20 -9 15 -58 18 -73 3 -7 -7 -26 -7 -60 0 -27 5 -98 12 -159 15 -128 5
-217 17 -262 35 -25 9 -41 9 -64 1 -23 -8 -48 -7 -100 4 -87 18 -88 18 -95 0z"/>
<path d="M6323 4176 c-24 -34 -43 -66 -43 -69 0 -10 1458 -9 1463 1 2 4 7 35
11 70 l7 62 -698 0 -698 -1 -42 -63z"/>
<path d="M4380 3573 c0 -290 4 -533 8 -539 16 -23 58 -44 88 -44 37 0 83 39
85 72 1 13 1 199 0 413 l-2 390 -78 115 c-43 63 -83 116 -90 118 -8 3 -11
-133 -11 -525z"/>
<path d="M6159 3938 c-34 -51 -114 -168 -176 -261 l-114 -167 20 -28 c38 -54
158 -158 222 -194 88 -49 177 -76 289 -87 82 -9 97 -14 110 -33 27 -40 49 -58
74 -58 13 0 28 -6 34 -12 13 -16 42 -468 42 -647 0 -297 -53 -697 -110 -826
-5 -11 -19 -45 -31 -75 -13 -30 -39 -79 -58 -109 -34 -52 -35 -53 -16 -68 11
-8 45 -26 75 -41 49 -23 68 -26 165 -26 101 -1 115 1 170 27 100 48 101 50 54
113 -73 99 -121 244 -160 489 -39 241 -36 1061 4 1144 7 15 25 28 44 33 28 7
66 42 75 69 2 5 44 14 93 20 187 23 325 87 446 208 90 90 147 173 201 290 44
94 108 279 108 311 0 20 -7 20 -749 20 l-749 0 -63 -92z m630 -2538 c24 -13
-6 -23 -83 -28 -107 -6 -172 29 -76 41 43 6 140 -2 159 -13z"/>
<path d="M5704 3475 c-110 -118 -212 -220 -227 -226 -15 -7 -65 -15 -110 -18
-64 -5 -82 -9 -82 -21 0 -12 16 -16 70 -18 39 -2 101 -7 138 -11 63 -7 70 -6
84 13 8 12 54 78 101 148 48 69 110 159 137 199 60 88 98 149 92 149 -3 0 -94
-97 -203 -215z"/>
<path d="M4860 3558 c1 -30 158 -267 178 -268 15 0 16 57 2 94 -10 27 -157
186 -171 186 -5 0 -9 -6 -9 -12z"/>
<path d="M5717 3287 c-89 -129 -107 -161 -116 -210 -19 -104 -59 -167 -135
-212 -46 -28 -50 -914 -5 -1160 22 -115 51 -230 70 -272 10 -23 19 -46 19 -51
0 -17 37 -42 63 -42 33 0 180 -34 255 -59 63 -22 72 -20 72 13 0 86 218 196
436 221 33 3 65 10 71 13 16 10 58 123 82 217 56 223 76 534 61 942 -11 314
-16 350 -44 365 -12 5 -39 27 -61 48 -37 35 -45 38 -115 43 -161 12 -319 88
-455 219 -45 43 -84 78 -87 78 -3 0 -53 -69 -111 -153z"/>
<path d="M4860 3225 l0 -175 29 -30 c71 -75 177 -2 156 108 -7 36 -159 272
-176 272 -5 0 -9 -76 -9 -175z"/>
<path d="M5114 3287 c-3 -8 -4 -34 -2 -58 3 -42 5 -44 36 -47 35 -3 62 11 62
33 0 7 -20 29 -45 50 -35 28 -46 33 -51 22z"/>
<path d="M5288 3134 c-5 -4 -8 -18 -8 -32 0 -24 1 -25 78 -20 77 5 132 22 116
38 -12 12 -177 24 -186 14z"/>
<path d="M5140 3045 c0 -27 40 -95 55 -95 26 0 20 76 -7 94 -29 20 -48 20 -48
1z"/>
<path d="M5450 3038 c-30 -11 -80 -21 -110 -22 l-55 -3 -3 -69 c-2 -38 1 -130
8 -204 17 -213 15 -709 -4 -870 -34 -286 -86 -468 -169 -595 -44 -69 -43 -76
24 -111 104 -55 264 -57 375 -5 35 16 67 36 70 44 3 8 -11 37 -29 66 -57 86
-119 246 -132 342 -4 24 -11 58 -16 74 -4 17 -16 104 -26 195 -28 267 -21 791
13 1007 4 28 11 34 44 43 44 12 90 67 90 107 0 27 -7 27 -80 1z m-16 -1818
c16 -16 -2 -24 -69 -28 -113 -7 -174 15 -102 37 38 12 156 6 171 -9z"/>
<path d="M3407 2504 c-4 -4 -7 -50 -7 -101 0 -121 20 -166 81 -184 34 -11 48
-10 82 2 59 20 76 58 77 176 0 88 -1 93 -22 97 -45 9 -204 16 -211 10z"/>
<path d="M6287 1446 c-21 -8 -53 -17 -72 -20 -19 -4 -47 -13 -62 -21 -15 -8
-33 -15 -38 -15 -6 0 -27 -12 -48 -26 -36 -24 -38 -27 -22 -44 44 -48 201 -99
387 -125 142 -20 425 -16 568 8 153 26 340 96 340 127 0 13 -66 55 -115 74
-76 29 -196 57 -226 54 l-31 -3 21 -27 c27 -33 26 -50 -2 -74 -84 -72 -166
-99 -302 -99 -131 0 -209 24 -280 87 -50 44 -54 57 -25 83 11 10 20 22 20 27
0 12 -70 9 -113 -6z"/>
<path d="M5000 1279 c-100 -22 -160 -39 -212 -58 -58 -22 -108 -55 -108 -71 0
-12 131 -73 200 -94 257 -76 724 -72 945 8 67 24 129 53 150 70 20 16 20 16
-7 40 -30 27 -137 70 -213 86 -27 6 -67 15 -88 19 -46 10 -57 -2 -28 -33 29
-30 27 -38 -18 -79 -142 -128 -442 -125 -578 6 -39 37 -40 43 -11 74 27 29 14
42 -32 32z"/>
<path d="M5995 1270 c-10 -16 17 -52 63 -83 44 -31 147 -69 232 -87 30 -6 80
-16 110 -22 74 -16 519 -15 585 1 28 7 73 17 100 22 139 29 257 87 286 142 18
32 -1 36 -49 9 -181 -102 -548 -146 -887 -107 -71 9 -143 19 -160 24 -109 31
-205 67 -232 87 -36 27 -39 28 -48 14z"/>
<path d="M4650 1078 c0 -46 77 -98 195 -132 33 -10 71 -22 85 -26 41 -15 238
-37 385 -44 70 -4 404 31 420 43 5 5 30 12 55 16 24 4 51 11 60 16 8 5 38 18
66 29 59 24 120 81 111 103 -5 12 -20 8 -84 -24 -43 -21 -94 -41 -113 -45 -19
-4 -39 -10 -45 -14 -24 -19 -250 -44 -424 -48 -238 -4 -399 19 -571 80 -57 20
-79 30 -117 56 -22 13 -23 13 -23 -10z"/>
<path d="M1403 3405 c-76 -33 -86 -165 -16 -211 29 -18 102 -21 133 -4 30 16
60 69 60 108 0 59 -64 123 -122 122 -13 -1 -37 -7 -55 -15z"/>
<path d="M1307 2364 c-120 -18 -191 -48 -195 -85 -5 -45 41 -69 183 -95 106
-19 239 -18 338 2 97 20 136 35 162 64 41 45 -22 85 -178 111 -129 22 -175 22
-310 3z m267 -70 c24 -9 19 -33 -10 -44 -14 -6 -63 -10 -109 -10 -137 0 -184
38 -75 61 37 8 166 4 194 -7z"/>
</g>
</svg>
